<mxfile host="app.diagrams.net" modified="2023-09-07T08:03:04.026Z" agent="Mozilla/5.0 (Windows NT 10.0; Win64; x64) AppleWebKit/537.36 (KHTML, like Gecko) Chrome/116.0.0.0 Safari/537.36" etag="tFf-EZoZR9imHzN5i0jp" version="21.7.2" type="device" pages="2">
  <diagram id="C5RBs43oDa-KdzZeNtuy" name="system-diagram">
    <mxGraphModel dx="974" dy="388" grid="1" gridSize="10" guides="1" tooltips="1" connect="1" arrows="1" fold="1" page="1" pageScale="1" pageWidth="827" pageHeight="1169" math="0" shadow="0">
      <root>
        <mxCell id="WIyWlLk6GJQsqaUBKTNV-0" />
        <mxCell id="WIyWlLk6GJQsqaUBKTNV-1" parent="WIyWlLk6GJQsqaUBKTNV-0" />
        <mxCell id="IeegtXiLyvcNOMM4544J-11" value="" style="rounded=0;whiteSpace=wrap;html=1;" parent="WIyWlLk6GJQsqaUBKTNV-1" vertex="1">
          <mxGeometry x="80" y="400" width="160" height="100" as="geometry" />
        </mxCell>
        <mxCell id="zM4iiTm-tZ1WMXd_hlIh-3" style="edgeStyle=orthogonalEdgeStyle;rounded=0;orthogonalLoop=1;jettySize=auto;html=1;" parent="WIyWlLk6GJQsqaUBKTNV-1" source="WIyWlLk6GJQsqaUBKTNV-3" target="WIyWlLk6GJQsqaUBKTNV-7" edge="1">
          <mxGeometry relative="1" as="geometry" />
        </mxCell>
        <mxCell id="WIyWlLk6GJQsqaUBKTNV-3" value="XML" style="rounded=1;whiteSpace=wrap;html=1;fontSize=12;glass=0;strokeWidth=1;shadow=0;" parent="WIyWlLk6GJQsqaUBKTNV-1" vertex="1">
          <mxGeometry x="10" y="40" width="120" height="40" as="geometry" />
        </mxCell>
        <mxCell id="zM4iiTm-tZ1WMXd_hlIh-6" style="edgeStyle=orthogonalEdgeStyle;rounded=0;orthogonalLoop=1;jettySize=auto;html=1;entryX=0.5;entryY=0;entryDx=0;entryDy=0;" parent="WIyWlLk6GJQsqaUBKTNV-1" source="WIyWlLk6GJQsqaUBKTNV-7" target="WIyWlLk6GJQsqaUBKTNV-12" edge="1">
          <mxGeometry relative="1" as="geometry">
            <Array as="points">
              <mxPoint x="70" y="250" />
              <mxPoint x="160" y="250" />
            </Array>
          </mxGeometry>
        </mxCell>
        <mxCell id="WIyWlLk6GJQsqaUBKTNV-7" value="Excel (raw data)" style="rounded=1;whiteSpace=wrap;html=1;fontSize=12;glass=0;strokeWidth=1;shadow=0;" parent="WIyWlLk6GJQsqaUBKTNV-1" vertex="1">
          <mxGeometry x="10" y="140" width="120" height="40" as="geometry" />
        </mxCell>
        <mxCell id="zM4iiTm-tZ1WMXd_hlIh-20" style="edgeStyle=orthogonalEdgeStyle;rounded=0;orthogonalLoop=1;jettySize=auto;html=1;entryX=1;entryY=0.5;entryDx=0;entryDy=0;exitX=1;exitY=0.5;exitDx=0;exitDy=0;" parent="WIyWlLk6GJQsqaUBKTNV-1" source="WIyWlLk6GJQsqaUBKTNV-11" target="zM4iiTm-tZ1WMXd_hlIh-18" edge="1">
          <mxGeometry relative="1" as="geometry">
            <Array as="points">
              <mxPoint x="810" y="320" />
              <mxPoint x="810" y="450" />
            </Array>
          </mxGeometry>
        </mxCell>
        <mxCell id="WIyWlLk6GJQsqaUBKTNV-11" value="SKOS vocabulary" style="rounded=1;whiteSpace=wrap;html=1;fontSize=12;glass=0;strokeWidth=1;shadow=0;" parent="WIyWlLk6GJQsqaUBKTNV-1" vertex="1">
          <mxGeometry x="667" y="300" width="120" height="40" as="geometry" />
        </mxCell>
        <mxCell id="zM4iiTm-tZ1WMXd_hlIh-10" style="edgeStyle=orthogonalEdgeStyle;rounded=0;orthogonalLoop=1;jettySize=auto;html=1;entryX=0;entryY=0.5;entryDx=0;entryDy=0;" parent="WIyWlLk6GJQsqaUBKTNV-1" source="WIyWlLk6GJQsqaUBKTNV-12" target="zM4iiTm-tZ1WMXd_hlIh-9" edge="1">
          <mxGeometry relative="1" as="geometry" />
        </mxCell>
        <mxCell id="WIyWlLk6GJQsqaUBKTNV-12" value="Excel (clean data)" style="rounded=1;whiteSpace=wrap;html=1;fontSize=12;glass=0;strokeWidth=1;shadow=0;" parent="WIyWlLk6GJQsqaUBKTNV-1" vertex="1">
          <mxGeometry x="100" y="300" width="120" height="40" as="geometry" />
        </mxCell>
        <mxCell id="zM4iiTm-tZ1WMXd_hlIh-8" style="edgeStyle=orthogonalEdgeStyle;rounded=0;orthogonalLoop=1;jettySize=auto;html=1;entryX=0.5;entryY=0;entryDx=0;entryDy=0;" parent="WIyWlLk6GJQsqaUBKTNV-1" source="zM4iiTm-tZ1WMXd_hlIh-0" target="WIyWlLk6GJQsqaUBKTNV-12" edge="1">
          <mxGeometry relative="1" as="geometry">
            <Array as="points">
              <mxPoint x="240" y="250" />
              <mxPoint x="160" y="250" />
            </Array>
          </mxGeometry>
        </mxCell>
        <mxCell id="zM4iiTm-tZ1WMXd_hlIh-0" value="Excel template" style="rounded=1;whiteSpace=wrap;html=1;fontSize=12;glass=0;strokeWidth=1;shadow=0;" parent="WIyWlLk6GJQsqaUBKTNV-1" vertex="1">
          <mxGeometry x="180" y="40" width="120" height="40" as="geometry" />
        </mxCell>
        <mxCell id="zM4iiTm-tZ1WMXd_hlIh-15" style="edgeStyle=orthogonalEdgeStyle;rounded=0;orthogonalLoop=1;jettySize=auto;html=1;entryX=0;entryY=0.5;entryDx=0;entryDy=0;" parent="WIyWlLk6GJQsqaUBKTNV-1" source="zM4iiTm-tZ1WMXd_hlIh-9" target="IeegtXiLyvcNOMM4544J-3" edge="1">
          <mxGeometry relative="1" as="geometry" />
        </mxCell>
        <mxCell id="IeegtXiLyvcNOMM4544J-4" style="edgeStyle=orthogonalEdgeStyle;rounded=0;orthogonalLoop=1;jettySize=auto;html=1;entryX=0;entryY=0.5;entryDx=0;entryDy=0;" parent="WIyWlLk6GJQsqaUBKTNV-1" source="zM4iiTm-tZ1WMXd_hlIh-9" target="WIyWlLk6GJQsqaUBKTNV-11" edge="1">
          <mxGeometry relative="1" as="geometry" />
        </mxCell>
        <mxCell id="IeegtXiLyvcNOMM4544J-5" style="edgeStyle=orthogonalEdgeStyle;rounded=0;orthogonalLoop=1;jettySize=auto;html=1;entryX=0;entryY=0.5;entryDx=0;entryDy=0;" parent="WIyWlLk6GJQsqaUBKTNV-1" source="zM4iiTm-tZ1WMXd_hlIh-9" target="IeegtXiLyvcNOMM4544J-2" edge="1">
          <mxGeometry relative="1" as="geometry" />
        </mxCell>
        <mxCell id="zM4iiTm-tZ1WMXd_hlIh-9" value="Github repo (Excel2RDF)" style="rounded=1;whiteSpace=wrap;html=1;fontSize=12;glass=0;strokeWidth=1;shadow=0;" parent="WIyWlLk6GJQsqaUBKTNV-1" vertex="1">
          <mxGeometry x="390" y="300" width="120" height="40" as="geometry" />
        </mxCell>
        <mxCell id="zM4iiTm-tZ1WMXd_hlIh-12" value="Push commits" style="text;html=1;strokeColor=none;fillColor=none;align=center;verticalAlign=middle;whiteSpace=wrap;rounded=0;" parent="WIyWlLk6GJQsqaUBKTNV-1" vertex="1">
          <mxGeometry x="280" y="330" width="60" height="30" as="geometry" />
        </mxCell>
        <mxCell id="zM4iiTm-tZ1WMXd_hlIh-13" style="edgeStyle=orthogonalEdgeStyle;rounded=0;orthogonalLoop=1;jettySize=auto;html=1;entryX=0.5;entryY=1;entryDx=0;entryDy=0;" parent="WIyWlLk6GJQsqaUBKTNV-1" source="zM4iiTm-tZ1WMXd_hlIh-9" target="zM4iiTm-tZ1WMXd_hlIh-9" edge="1">
          <mxGeometry relative="1" as="geometry" />
        </mxCell>
        <mxCell id="zM4iiTm-tZ1WMXd_hlIh-14" value="Convert to RDF" style="text;html=1;strokeColor=none;fillColor=none;align=center;verticalAlign=middle;whiteSpace=wrap;rounded=0;" parent="WIyWlLk6GJQsqaUBKTNV-1" vertex="1">
          <mxGeometry x="460" y="240" width="60" height="30" as="geometry" />
        </mxCell>
        <mxCell id="zM4iiTm-tZ1WMXd_hlIh-17" value="Merge vocabularies" style="text;html=1;strokeColor=none;fillColor=none;align=center;verticalAlign=middle;whiteSpace=wrap;rounded=0;" parent="WIyWlLk6GJQsqaUBKTNV-1" vertex="1">
          <mxGeometry x="570" y="330" width="60" height="30" as="geometry" />
        </mxCell>
        <mxCell id="IeegtXiLyvcNOMM4544J-9" style="edgeStyle=orthogonalEdgeStyle;rounded=0;orthogonalLoop=1;jettySize=auto;html=1;entryX=1;entryY=0.5;entryDx=0;entryDy=0;" parent="WIyWlLk6GJQsqaUBKTNV-1" source="zM4iiTm-tZ1WMXd_hlIh-18" target="IeegtXiLyvcNOMM4544J-8" edge="1">
          <mxGeometry relative="1" as="geometry" />
        </mxCell>
        <mxCell id="zM4iiTm-tZ1WMXd_hlIh-18" value="Github repo&lt;br&gt;(RDF data)" style="rounded=1;whiteSpace=wrap;html=1;fontSize=12;glass=0;strokeWidth=1;shadow=0;" parent="WIyWlLk6GJQsqaUBKTNV-1" vertex="1">
          <mxGeometry x="400" y="430" width="120" height="40" as="geometry" />
        </mxCell>
        <mxCell id="zM4iiTm-tZ1WMXd_hlIh-21" value="Import data" style="text;html=1;strokeColor=none;fillColor=none;align=center;verticalAlign=middle;whiteSpace=wrap;rounded=0;" parent="WIyWlLk6GJQsqaUBKTNV-1" vertex="1">
          <mxGeometry x="280" y="460" width="60" height="30" as="geometry" />
        </mxCell>
        <mxCell id="zM4iiTm-tZ1WMXd_hlIh-23" value="Extract" style="text;html=1;strokeColor=none;fillColor=none;align=center;verticalAlign=middle;whiteSpace=wrap;rounded=0;" parent="WIyWlLk6GJQsqaUBKTNV-1" vertex="1">
          <mxGeometry x="70" y="94" width="60" height="30" as="geometry" />
        </mxCell>
        <mxCell id="zM4iiTm-tZ1WMXd_hlIh-24" value="Create" style="text;html=1;strokeColor=none;fillColor=none;align=center;verticalAlign=middle;whiteSpace=wrap;rounded=0;" parent="WIyWlLk6GJQsqaUBKTNV-1" vertex="1">
          <mxGeometry x="240" y="145" width="60" height="30" as="geometry" />
        </mxCell>
        <mxCell id="IeegtXiLyvcNOMM4544J-0" value="Clean" style="text;html=1;strokeColor=none;fillColor=none;align=center;verticalAlign=middle;whiteSpace=wrap;rounded=0;" parent="WIyWlLk6GJQsqaUBKTNV-1" vertex="1">
          <mxGeometry x="70" y="200" width="60" height="30" as="geometry" />
        </mxCell>
        <mxCell id="IeegtXiLyvcNOMM4544J-6" style="edgeStyle=orthogonalEdgeStyle;rounded=0;orthogonalLoop=1;jettySize=auto;html=1;entryX=1;entryY=0.5;entryDx=0;entryDy=0;" parent="WIyWlLk6GJQsqaUBKTNV-1" source="IeegtXiLyvcNOMM4544J-2" target="zM4iiTm-tZ1WMXd_hlIh-18" edge="1">
          <mxGeometry relative="1" as="geometry">
            <Array as="points">
              <mxPoint x="810" y="265" />
              <mxPoint x="810" y="450" />
            </Array>
          </mxGeometry>
        </mxCell>
        <mxCell id="IeegtXiLyvcNOMM4544J-2" value="SKOS catalog" style="rounded=1;whiteSpace=wrap;html=1;fontSize=12;glass=0;strokeWidth=1;shadow=0;" parent="WIyWlLk6GJQsqaUBKTNV-1" vertex="1">
          <mxGeometry x="667" y="245" width="120" height="40" as="geometry" />
        </mxCell>
        <mxCell id="IeegtXiLyvcNOMM4544J-7" style="edgeStyle=orthogonalEdgeStyle;rounded=0;orthogonalLoop=1;jettySize=auto;html=1;entryX=1;entryY=0.5;entryDx=0;entryDy=0;" parent="WIyWlLk6GJQsqaUBKTNV-1" source="IeegtXiLyvcNOMM4544J-3" target="zM4iiTm-tZ1WMXd_hlIh-18" edge="1">
          <mxGeometry relative="1" as="geometry">
            <Array as="points">
              <mxPoint x="810" y="210" />
              <mxPoint x="810" y="450" />
            </Array>
          </mxGeometry>
        </mxCell>
        <mxCell id="IeegtXiLyvcNOMM4544J-3" value="SKOS ICS" style="rounded=1;whiteSpace=wrap;html=1;fontSize=12;glass=0;strokeWidth=1;shadow=0;" parent="WIyWlLk6GJQsqaUBKTNV-1" vertex="1">
          <mxGeometry x="667" y="190" width="120" height="40" as="geometry" />
        </mxCell>
        <mxCell id="IeegtXiLyvcNOMM4544J-8" value="Graph database" style="rounded=1;whiteSpace=wrap;html=1;fontSize=12;glass=0;strokeWidth=1;shadow=0;" parent="WIyWlLk6GJQsqaUBKTNV-1" vertex="1">
          <mxGeometry x="100" y="430" width="120" height="40" as="geometry" />
        </mxCell>
        <mxCell id="IeegtXiLyvcNOMM4544J-10" value="Push" style="text;html=1;strokeColor=none;fillColor=none;align=center;verticalAlign=middle;whiteSpace=wrap;rounded=0;" parent="WIyWlLk6GJQsqaUBKTNV-1" vertex="1">
          <mxGeometry x="660" y="460" width="60" height="30" as="geometry" />
        </mxCell>
        <mxCell id="IeegtXiLyvcNOMM4544J-15" style="edgeStyle=orthogonalEdgeStyle;rounded=0;orthogonalLoop=1;jettySize=auto;html=1;" parent="WIyWlLk6GJQsqaUBKTNV-1" source="IeegtXiLyvcNOMM4544J-12" target="IeegtXiLyvcNOMM4544J-13" edge="1">
          <mxGeometry relative="1" as="geometry" />
        </mxCell>
        <mxCell id="IeegtXiLyvcNOMM4544J-12" value="API" style="rounded=0;whiteSpace=wrap;html=1;" parent="WIyWlLk6GJQsqaUBKTNV-1" vertex="1">
          <mxGeometry x="160" y="500" width="80" height="30" as="geometry" />
        </mxCell>
        <mxCell id="IeegtXiLyvcNOMM4544J-14" style="edgeStyle=orthogonalEdgeStyle;rounded=0;orthogonalLoop=1;jettySize=auto;html=1;entryX=0.5;entryY=1;entryDx=0;entryDy=0;" parent="WIyWlLk6GJQsqaUBKTNV-1" source="IeegtXiLyvcNOMM4544J-13" target="IeegtXiLyvcNOMM4544J-12" edge="1">
          <mxGeometry relative="1" as="geometry" />
        </mxCell>
        <mxCell id="IeegtXiLyvcNOMM4544J-13" value="3rd party app" style="rounded=0;whiteSpace=wrap;html=1;" parent="WIyWlLk6GJQsqaUBKTNV-1" vertex="1">
          <mxGeometry x="119.5" y="660" width="160" height="100" as="geometry" />
        </mxCell>
        <mxCell id="IeegtXiLyvcNOMM4544J-19" value="" style="endArrow=none;dashed=1;html=1;rounded=0;" parent="WIyWlLk6GJQsqaUBKTNV-1" edge="1">
          <mxGeometry width="50" height="50" relative="1" as="geometry">
            <mxPoint x="320" y="820" as="sourcePoint" />
            <mxPoint x="320" y="600" as="targetPoint" />
          </mxGeometry>
        </mxCell>
        <mxCell id="IeegtXiLyvcNOMM4544J-20" value="" style="endArrow=none;dashed=1;html=1;rounded=0;" parent="WIyWlLk6GJQsqaUBKTNV-1" edge="1">
          <mxGeometry width="50" height="50" relative="1" as="geometry">
            <mxPoint x="80" y="820" as="sourcePoint" />
            <mxPoint x="80" y="600" as="targetPoint" />
          </mxGeometry>
        </mxCell>
        <mxCell id="IeegtXiLyvcNOMM4544J-21" value="" style="endArrow=none;dashed=1;html=1;rounded=0;" parent="WIyWlLk6GJQsqaUBKTNV-1" edge="1">
          <mxGeometry width="50" height="50" relative="1" as="geometry">
            <mxPoint x="79.5" y="600" as="sourcePoint" />
            <mxPoint x="319.5" y="600" as="targetPoint" />
          </mxGeometry>
        </mxCell>
        <mxCell id="IeegtXiLyvcNOMM4544J-22" value="" style="endArrow=none;dashed=1;html=1;rounded=0;" parent="WIyWlLk6GJQsqaUBKTNV-1" edge="1">
          <mxGeometry width="50" height="50" relative="1" as="geometry">
            <mxPoint x="79.5" y="820" as="sourcePoint" />
            <mxPoint x="319.5" y="820" as="targetPoint" />
          </mxGeometry>
        </mxCell>
        <mxCell id="IeegtXiLyvcNOMM4544J-23" value="SPARQL" style="rounded=0;whiteSpace=wrap;html=1;" parent="WIyWlLk6GJQsqaUBKTNV-1" vertex="1">
          <mxGeometry x="80" y="500" width="80" height="30" as="geometry" />
        </mxCell>
      </root>
    </mxGraphModel>
  </diagram>
  <diagram id="kIWZHbM_vU1zWP1vuuN9" name="workflow-diagrams">
    <mxGraphModel dx="2595" dy="647" grid="1" gridSize="10" guides="1" tooltips="1" connect="1" arrows="1" fold="1" page="1" pageScale="1" pageWidth="850" pageHeight="1100" math="0" shadow="0">
      <root>
        <mxCell id="0" />
        <mxCell id="1" parent="0" />
        <mxCell id="hoYCMe5sjBaaG0WmRJp5-56" value="" style="edgeStyle=orthogonalEdgeStyle;rounded=0;orthogonalLoop=1;jettySize=auto;html=1;" edge="1" parent="1" source="73FhPPXfnsjhQGe9wYFS-1" target="hoYCMe5sjBaaG0WmRJp5-55">
          <mxGeometry relative="1" as="geometry" />
        </mxCell>
        <mxCell id="hoYCMe5sjBaaG0WmRJp5-120" style="edgeStyle=orthogonalEdgeStyle;rounded=0;orthogonalLoop=1;jettySize=auto;html=1;entryX=0.5;entryY=0;entryDx=0;entryDy=0;entryPerimeter=0;" edge="1" parent="1" source="73FhPPXfnsjhQGe9wYFS-1" target="hoYCMe5sjBaaG0WmRJp5-118">
          <mxGeometry relative="1" as="geometry">
            <Array as="points">
              <mxPoint x="240" y="70" />
            </Array>
          </mxGeometry>
        </mxCell>
        <mxCell id="73FhPPXfnsjhQGe9wYFS-1" value="create standard" style="strokeWidth=2;html=1;shape=mxgraph.flowchart.start_1;whiteSpace=wrap;" vertex="1" parent="1">
          <mxGeometry x="70" y="40" width="100" height="60" as="geometry" />
        </mxCell>
        <mxCell id="hoYCMe5sjBaaG0WmRJp5-127" value="" style="edgeStyle=orthogonalEdgeStyle;rounded=0;orthogonalLoop=1;jettySize=auto;html=1;" edge="1" parent="1" source="73FhPPXfnsjhQGe9wYFS-2" target="hoYCMe5sjBaaG0WmRJp5-126">
          <mxGeometry relative="1" as="geometry">
            <Array as="points">
              <mxPoint x="410" y="70" />
            </Array>
          </mxGeometry>
        </mxCell>
        <mxCell id="73FhPPXfnsjhQGe9wYFS-2" value="revise standard" style="strokeWidth=2;html=1;shape=mxgraph.flowchart.start_1;whiteSpace=wrap;" vertex="1" parent="1">
          <mxGeometry x="490" y="40" width="100" height="60" as="geometry" />
        </mxCell>
        <mxCell id="hoYCMe5sjBaaG0WmRJp5-140" value="" style="edgeStyle=orthogonalEdgeStyle;rounded=0;orthogonalLoop=1;jettySize=auto;html=1;" edge="1" parent="1" source="73FhPPXfnsjhQGe9wYFS-3" target="hoYCMe5sjBaaG0WmRJp5-139">
          <mxGeometry relative="1" as="geometry" />
        </mxCell>
        <mxCell id="73FhPPXfnsjhQGe9wYFS-3" value="deprecate standard" style="strokeWidth=2;html=1;shape=mxgraph.flowchart.start_1;whiteSpace=wrap;" vertex="1" parent="1">
          <mxGeometry x="810" y="40" width="100" height="60" as="geometry" />
        </mxCell>
        <mxCell id="hoYCMe5sjBaaG0WmRJp5-14" value="" style="edgeStyle=orthogonalEdgeStyle;rounded=0;orthogonalLoop=1;jettySize=auto;html=1;" edge="1" parent="1" source="hoYCMe5sjBaaG0WmRJp5-10" target="hoYCMe5sjBaaG0WmRJp5-13">
          <mxGeometry relative="1" as="geometry" />
        </mxCell>
        <mxCell id="hoYCMe5sjBaaG0WmRJp5-10" value="add document" style="strokeWidth=2;html=1;shape=mxgraph.flowchart.start_1;whiteSpace=wrap;" vertex="1" parent="1">
          <mxGeometry x="10" y="530" width="100" height="60" as="geometry" />
        </mxCell>
        <mxCell id="hoYCMe5sjBaaG0WmRJp5-17" value="" style="edgeStyle=orthogonalEdgeStyle;rounded=0;orthogonalLoop=1;jettySize=auto;html=1;" edge="1" parent="1" source="hoYCMe5sjBaaG0WmRJp5-13" target="hoYCMe5sjBaaG0WmRJp5-16">
          <mxGeometry relative="1" as="geometry" />
        </mxCell>
        <mxCell id="hoYCMe5sjBaaG0WmRJp5-13" value="open catalog.xls" style="whiteSpace=wrap;html=1;strokeWidth=2;" vertex="1" parent="1">
          <mxGeometry x="180" y="530" width="120" height="60" as="geometry" />
        </mxCell>
        <mxCell id="hoYCMe5sjBaaG0WmRJp5-21" value="" style="edgeStyle=orthogonalEdgeStyle;rounded=0;orthogonalLoop=1;jettySize=auto;html=1;" edge="1" parent="1" source="hoYCMe5sjBaaG0WmRJp5-16" target="hoYCMe5sjBaaG0WmRJp5-20">
          <mxGeometry relative="1" as="geometry" />
        </mxCell>
        <mxCell id="hoYCMe5sjBaaG0WmRJp5-16" value="create URI" style="whiteSpace=wrap;html=1;strokeWidth=2;" vertex="1" parent="1">
          <mxGeometry x="380" y="530" width="120" height="60" as="geometry" />
        </mxCell>
        <mxCell id="hoYCMe5sjBaaG0WmRJp5-33" value="" style="edgeStyle=orthogonalEdgeStyle;rounded=0;orthogonalLoop=1;jettySize=auto;html=1;" edge="1" parent="1" source="hoYCMe5sjBaaG0WmRJp5-20" target="hoYCMe5sjBaaG0WmRJp5-32">
          <mxGeometry relative="1" as="geometry" />
        </mxCell>
        <mxCell id="hoYCMe5sjBaaG0WmRJp5-20" value="add metadata" style="whiteSpace=wrap;html=1;strokeWidth=2;" vertex="1" parent="1">
          <mxGeometry x="580" y="530" width="120" height="60" as="geometry" />
        </mxCell>
        <mxCell id="hoYCMe5sjBaaG0WmRJp5-24" value="" style="edgeStyle=orthogonalEdgeStyle;rounded=0;orthogonalLoop=1;jettySize=auto;html=1;" edge="1" parent="1" source="hoYCMe5sjBaaG0WmRJp5-25" target="hoYCMe5sjBaaG0WmRJp5-27">
          <mxGeometry relative="1" as="geometry" />
        </mxCell>
        <mxCell id="hoYCMe5sjBaaG0WmRJp5-25" value="deprecate document" style="strokeWidth=2;html=1;shape=mxgraph.flowchart.start_1;whiteSpace=wrap;" vertex="1" parent="1">
          <mxGeometry x="10" y="630" width="100" height="60" as="geometry" />
        </mxCell>
        <mxCell id="hoYCMe5sjBaaG0WmRJp5-26" value="" style="edgeStyle=orthogonalEdgeStyle;rounded=0;orthogonalLoop=1;jettySize=auto;html=1;" edge="1" parent="1" source="hoYCMe5sjBaaG0WmRJp5-27" target="hoYCMe5sjBaaG0WmRJp5-29">
          <mxGeometry relative="1" as="geometry" />
        </mxCell>
        <mxCell id="hoYCMe5sjBaaG0WmRJp5-27" value="open catalog.xls" style="whiteSpace=wrap;html=1;strokeWidth=2;" vertex="1" parent="1">
          <mxGeometry x="180" y="630" width="120" height="60" as="geometry" />
        </mxCell>
        <mxCell id="hoYCMe5sjBaaG0WmRJp5-28" value="" style="edgeStyle=orthogonalEdgeStyle;rounded=0;orthogonalLoop=1;jettySize=auto;html=1;" edge="1" parent="1" source="hoYCMe5sjBaaG0WmRJp5-29" target="hoYCMe5sjBaaG0WmRJp5-30">
          <mxGeometry relative="1" as="geometry" />
        </mxCell>
        <mxCell id="hoYCMe5sjBaaG0WmRJp5-29" value="set owl:deprecated property" style="whiteSpace=wrap;html=1;strokeWidth=2;" vertex="1" parent="1">
          <mxGeometry x="380" y="630" width="120" height="60" as="geometry" />
        </mxCell>
        <mxCell id="hoYCMe5sjBaaG0WmRJp5-30" value="push to Git" style="whiteSpace=wrap;html=1;strokeWidth=2;" vertex="1" parent="1">
          <mxGeometry x="580" y="630" width="120" height="60" as="geometry" />
        </mxCell>
        <mxCell id="hoYCMe5sjBaaG0WmRJp5-32" value="push to Git" style="whiteSpace=wrap;html=1;strokeWidth=2;" vertex="1" parent="1">
          <mxGeometry x="780" y="530" width="120" height="60" as="geometry" />
        </mxCell>
        <mxCell id="hoYCMe5sjBaaG0WmRJp5-34" value="" style="edgeStyle=orthogonalEdgeStyle;rounded=0;orthogonalLoop=1;jettySize=auto;html=1;" edge="1" parent="1" source="hoYCMe5sjBaaG0WmRJp5-35" target="hoYCMe5sjBaaG0WmRJp5-37">
          <mxGeometry relative="1" as="geometry" />
        </mxCell>
        <mxCell id="hoYCMe5sjBaaG0WmRJp5-35" value="replace document" style="strokeWidth=2;html=1;shape=mxgraph.flowchart.start_1;whiteSpace=wrap;" vertex="1" parent="1">
          <mxGeometry x="10" y="730" width="100" height="60" as="geometry" />
        </mxCell>
        <mxCell id="hoYCMe5sjBaaG0WmRJp5-51" value="" style="edgeStyle=orthogonalEdgeStyle;rounded=0;orthogonalLoop=1;jettySize=auto;html=1;" edge="1" parent="1" source="hoYCMe5sjBaaG0WmRJp5-37" target="hoYCMe5sjBaaG0WmRJp5-50">
          <mxGeometry relative="1" as="geometry" />
        </mxCell>
        <mxCell id="hoYCMe5sjBaaG0WmRJp5-37" value="open catalog.xls" style="whiteSpace=wrap;html=1;strokeWidth=2;" vertex="1" parent="1">
          <mxGeometry x="180" y="730" width="120" height="60" as="geometry" />
        </mxCell>
        <mxCell id="hoYCMe5sjBaaG0WmRJp5-44" value="" style="edgeStyle=orthogonalEdgeStyle;rounded=0;orthogonalLoop=1;jettySize=auto;html=1;" edge="1" parent="1" source="hoYCMe5sjBaaG0WmRJp5-45" target="hoYCMe5sjBaaG0WmRJp5-47">
          <mxGeometry relative="1" as="geometry" />
        </mxCell>
        <mxCell id="hoYCMe5sjBaaG0WmRJp5-45" value="set dc:replacedBy and dc:replaces property" style="whiteSpace=wrap;html=1;strokeWidth=2;" vertex="1" parent="1">
          <mxGeometry x="780" y="730" width="120" height="60" as="geometry" />
        </mxCell>
        <mxCell id="hoYCMe5sjBaaG0WmRJp5-46" value="" style="edgeStyle=orthogonalEdgeStyle;rounded=0;orthogonalLoop=1;jettySize=auto;html=1;" edge="1" parent="1" source="hoYCMe5sjBaaG0WmRJp5-47" target="hoYCMe5sjBaaG0WmRJp5-48">
          <mxGeometry relative="1" as="geometry" />
        </mxCell>
        <mxCell id="hoYCMe5sjBaaG0WmRJp5-47" value="set owl:deprecated property" style="whiteSpace=wrap;html=1;strokeWidth=2;" vertex="1" parent="1">
          <mxGeometry x="980" y="730" width="120" height="60" as="geometry" />
        </mxCell>
        <mxCell id="hoYCMe5sjBaaG0WmRJp5-48" value="push to Git" style="whiteSpace=wrap;html=1;strokeWidth=2;" vertex="1" parent="1">
          <mxGeometry x="1180" y="730" width="120" height="60" as="geometry" />
        </mxCell>
        <mxCell id="hoYCMe5sjBaaG0WmRJp5-53" value="" style="edgeStyle=orthogonalEdgeStyle;rounded=0;orthogonalLoop=1;jettySize=auto;html=1;" edge="1" parent="1" source="hoYCMe5sjBaaG0WmRJp5-50" target="hoYCMe5sjBaaG0WmRJp5-52">
          <mxGeometry relative="1" as="geometry" />
        </mxCell>
        <mxCell id="hoYCMe5sjBaaG0WmRJp5-50" value="create URI" style="whiteSpace=wrap;html=1;strokeWidth=2;" vertex="1" parent="1">
          <mxGeometry x="380" y="730" width="120" height="60" as="geometry" />
        </mxCell>
        <mxCell id="hoYCMe5sjBaaG0WmRJp5-54" style="edgeStyle=orthogonalEdgeStyle;rounded=0;orthogonalLoop=1;jettySize=auto;html=1;entryX=0;entryY=0.5;entryDx=0;entryDy=0;" edge="1" parent="1" source="hoYCMe5sjBaaG0WmRJp5-52" target="hoYCMe5sjBaaG0WmRJp5-45">
          <mxGeometry relative="1" as="geometry" />
        </mxCell>
        <mxCell id="hoYCMe5sjBaaG0WmRJp5-52" value="add metadata" style="whiteSpace=wrap;html=1;strokeWidth=2;" vertex="1" parent="1">
          <mxGeometry x="580" y="730" width="120" height="60" as="geometry" />
        </mxCell>
        <mxCell id="hoYCMe5sjBaaG0WmRJp5-123" style="edgeStyle=orthogonalEdgeStyle;rounded=0;orthogonalLoop=1;jettySize=auto;html=1;entryX=0.5;entryY=0;entryDx=0;entryDy=0;entryPerimeter=0;" edge="1" parent="1" source="hoYCMe5sjBaaG0WmRJp5-55" target="hoYCMe5sjBaaG0WmRJp5-122">
          <mxGeometry relative="1" as="geometry" />
        </mxCell>
        <mxCell id="hoYCMe5sjBaaG0WmRJp5-55" value="copy vocabulary template" style="whiteSpace=wrap;html=1;strokeWidth=2;" vertex="1" parent="1">
          <mxGeometry x="-60" y="160" width="120" height="60" as="geometry" />
        </mxCell>
        <mxCell id="hoYCMe5sjBaaG0WmRJp5-61" value="" style="edgeStyle=orthogonalEdgeStyle;rounded=0;orthogonalLoop=1;jettySize=auto;html=1;" edge="1" parent="1" source="hoYCMe5sjBaaG0WmRJp5-58" target="hoYCMe5sjBaaG0WmRJp5-60">
          <mxGeometry relative="1" as="geometry" />
        </mxCell>
        <mxCell id="hoYCMe5sjBaaG0WmRJp5-63" value="" style="edgeStyle=orthogonalEdgeStyle;rounded=0;orthogonalLoop=1;jettySize=auto;html=1;" edge="1" parent="1" source="hoYCMe5sjBaaG0WmRJp5-58" target="hoYCMe5sjBaaG0WmRJp5-60">
          <mxGeometry relative="1" as="geometry" />
        </mxCell>
        <mxCell id="hoYCMe5sjBaaG0WmRJp5-67" value="" style="edgeStyle=orthogonalEdgeStyle;rounded=0;orthogonalLoop=1;jettySize=auto;html=1;" edge="1" parent="1" source="hoYCMe5sjBaaG0WmRJp5-58" target="hoYCMe5sjBaaG0WmRJp5-66">
          <mxGeometry relative="1" as="geometry">
            <Array as="points">
              <mxPoint x="60" y="1230" />
            </Array>
          </mxGeometry>
        </mxCell>
        <mxCell id="hoYCMe5sjBaaG0WmRJp5-58" value="search concept" style="strokeWidth=2;html=1;shape=mxgraph.flowchart.start_1;whiteSpace=wrap;" vertex="1" parent="1">
          <mxGeometry x="10" y="1080" width="100" height="60" as="geometry" />
        </mxCell>
        <mxCell id="hoYCMe5sjBaaG0WmRJp5-70" value="" style="edgeStyle=orthogonalEdgeStyle;rounded=0;orthogonalLoop=1;jettySize=auto;html=1;" edge="1" parent="1" source="hoYCMe5sjBaaG0WmRJp5-60" target="hoYCMe5sjBaaG0WmRJp5-69">
          <mxGeometry relative="1" as="geometry" />
        </mxCell>
        <mxCell id="hoYCMe5sjBaaG0WmRJp5-60" value="No results" style="rhombus;whiteSpace=wrap;html=1;strokeWidth=2;" vertex="1" parent="1">
          <mxGeometry x="200" y="1070" width="80" height="80" as="geometry" />
        </mxCell>
        <mxCell id="hoYCMe5sjBaaG0WmRJp5-73" value="" style="edgeStyle=orthogonalEdgeStyle;rounded=0;orthogonalLoop=1;jettySize=auto;html=1;" edge="1" parent="1" source="hoYCMe5sjBaaG0WmRJp5-66" target="hoYCMe5sjBaaG0WmRJp5-72">
          <mxGeometry relative="1" as="geometry" />
        </mxCell>
        <mxCell id="hoYCMe5sjBaaG0WmRJp5-78" value="" style="edgeStyle=orthogonalEdgeStyle;rounded=0;orthogonalLoop=1;jettySize=auto;html=1;" edge="1" parent="1" source="hoYCMe5sjBaaG0WmRJp5-66" target="hoYCMe5sjBaaG0WmRJp5-77">
          <mxGeometry relative="1" as="geometry" />
        </mxCell>
        <mxCell id="hoYCMe5sjBaaG0WmRJp5-66" value="1 or more resutls" style="rhombus;whiteSpace=wrap;html=1;strokeWidth=2;" vertex="1" parent="1">
          <mxGeometry x="200" y="1190" width="80" height="80" as="geometry" />
        </mxCell>
        <mxCell id="hoYCMe5sjBaaG0WmRJp5-69" value="create concept" style="whiteSpace=wrap;html=1;strokeWidth=2;" vertex="1" parent="1">
          <mxGeometry x="340" y="1080" width="120" height="60" as="geometry" />
        </mxCell>
        <mxCell id="hoYCMe5sjBaaG0WmRJp5-117" style="edgeStyle=orthogonalEdgeStyle;rounded=0;orthogonalLoop=1;jettySize=auto;html=1;entryX=0;entryY=0.5;entryDx=0;entryDy=0;entryPerimeter=0;" edge="1" parent="1" source="hoYCMe5sjBaaG0WmRJp5-72" target="hoYCMe5sjBaaG0WmRJp5-116">
          <mxGeometry relative="1" as="geometry" />
        </mxCell>
        <mxCell id="hoYCMe5sjBaaG0WmRJp5-72" value="most recent definition in ICS applies" style="rhombus;whiteSpace=wrap;html=1;strokeWidth=2;" vertex="1" parent="1">
          <mxGeometry x="360" y="1190" width="80" height="80" as="geometry" />
        </mxCell>
        <mxCell id="hoYCMe5sjBaaG0WmRJp5-111" style="edgeStyle=orthogonalEdgeStyle;rounded=0;orthogonalLoop=1;jettySize=auto;html=1;entryX=0;entryY=0.5;entryDx=0;entryDy=0;entryPerimeter=0;" edge="1" parent="1" source="hoYCMe5sjBaaG0WmRJp5-77" target="hoYCMe5sjBaaG0WmRJp5-108">
          <mxGeometry relative="1" as="geometry" />
        </mxCell>
        <mxCell id="hoYCMe5sjBaaG0WmRJp5-114" style="edgeStyle=orthogonalEdgeStyle;rounded=0;orthogonalLoop=1;jettySize=auto;html=1;entryX=0.5;entryY=0;entryDx=0;entryDy=0;entryPerimeter=0;" edge="1" parent="1" source="hoYCMe5sjBaaG0WmRJp5-77" target="hoYCMe5sjBaaG0WmRJp5-112">
          <mxGeometry relative="1" as="geometry" />
        </mxCell>
        <mxCell id="hoYCMe5sjBaaG0WmRJp5-77" value="existing definition applies" style="rhombus;whiteSpace=wrap;html=1;strokeWidth=2;" vertex="1" parent="1">
          <mxGeometry x="200" y="1350" width="80" height="80" as="geometry" />
        </mxCell>
        <mxCell id="hoYCMe5sjBaaG0WmRJp5-84" value="Give explanation" style="whiteSpace=wrap;html=1;strokeWidth=2;" vertex="1" parent="1">
          <mxGeometry x="540" y="1360" width="120" height="60" as="geometry" />
        </mxCell>
        <mxCell id="hoYCMe5sjBaaG0WmRJp5-86" value="Give explanation" style="whiteSpace=wrap;html=1;strokeWidth=2;" vertex="1" parent="1">
          <mxGeometry x="540" y="1520" width="120" height="60" as="geometry" />
        </mxCell>
        <mxCell id="hoYCMe5sjBaaG0WmRJp5-90" value="" style="edgeStyle=orthogonalEdgeStyle;rounded=0;orthogonalLoop=1;jettySize=auto;html=1;" edge="1" parent="1" source="hoYCMe5sjBaaG0WmRJp5-91" target="hoYCMe5sjBaaG0WmRJp5-93">
          <mxGeometry relative="1" as="geometry" />
        </mxCell>
        <mxCell id="hoYCMe5sjBaaG0WmRJp5-91" value="create concept" style="strokeWidth=2;html=1;shape=mxgraph.flowchart.start_1;whiteSpace=wrap;" vertex="1" parent="1">
          <mxGeometry x="10" y="850" width="100" height="60" as="geometry" />
        </mxCell>
        <mxCell id="hoYCMe5sjBaaG0WmRJp5-92" value="" style="edgeStyle=orthogonalEdgeStyle;rounded=0;orthogonalLoop=1;jettySize=auto;html=1;" edge="1" parent="1" source="hoYCMe5sjBaaG0WmRJp5-93" target="hoYCMe5sjBaaG0WmRJp5-95">
          <mxGeometry relative="1" as="geometry" />
        </mxCell>
        <mxCell id="hoYCMe5sjBaaG0WmRJp5-93" value="open Excel file" style="whiteSpace=wrap;html=1;strokeWidth=2;" vertex="1" parent="1">
          <mxGeometry x="180" y="850" width="120" height="60" as="geometry" />
        </mxCell>
        <mxCell id="hoYCMe5sjBaaG0WmRJp5-94" value="" style="edgeStyle=orthogonalEdgeStyle;rounded=0;orthogonalLoop=1;jettySize=auto;html=1;" edge="1" parent="1" source="hoYCMe5sjBaaG0WmRJp5-95" target="hoYCMe5sjBaaG0WmRJp5-96">
          <mxGeometry relative="1" as="geometry" />
        </mxCell>
        <mxCell id="hoYCMe5sjBaaG0WmRJp5-95" value="create URI" style="whiteSpace=wrap;html=1;strokeWidth=2;" vertex="1" parent="1">
          <mxGeometry x="380" y="850" width="120" height="60" as="geometry" />
        </mxCell>
        <mxCell id="hoYCMe5sjBaaG0WmRJp5-96" value="add metadata" style="whiteSpace=wrap;html=1;strokeWidth=2;" vertex="1" parent="1">
          <mxGeometry x="580" y="850" width="120" height="60" as="geometry" />
        </mxCell>
        <mxCell id="hoYCMe5sjBaaG0WmRJp5-99" value="" style="edgeStyle=orthogonalEdgeStyle;rounded=0;orthogonalLoop=1;jettySize=auto;html=1;" edge="1" parent="1" source="hoYCMe5sjBaaG0WmRJp5-100" target="hoYCMe5sjBaaG0WmRJp5-102">
          <mxGeometry relative="1" as="geometry" />
        </mxCell>
        <mxCell id="hoYCMe5sjBaaG0WmRJp5-100" value="reuse concept" style="strokeWidth=2;html=1;shape=mxgraph.flowchart.start_1;whiteSpace=wrap;" vertex="1" parent="1">
          <mxGeometry x="10" y="950" width="100" height="60" as="geometry" />
        </mxCell>
        <mxCell id="hoYCMe5sjBaaG0WmRJp5-101" value="" style="edgeStyle=orthogonalEdgeStyle;rounded=0;orthogonalLoop=1;jettySize=auto;html=1;" edge="1" parent="1" source="hoYCMe5sjBaaG0WmRJp5-102" target="hoYCMe5sjBaaG0WmRJp5-104">
          <mxGeometry relative="1" as="geometry" />
        </mxCell>
        <mxCell id="hoYCMe5sjBaaG0WmRJp5-102" value="open Excel file" style="whiteSpace=wrap;html=1;strokeWidth=2;" vertex="1" parent="1">
          <mxGeometry x="180" y="950" width="120" height="60" as="geometry" />
        </mxCell>
        <mxCell id="hoYCMe5sjBaaG0WmRJp5-103" value="" style="edgeStyle=orthogonalEdgeStyle;rounded=0;orthogonalLoop=1;jettySize=auto;html=1;" edge="1" parent="1" source="hoYCMe5sjBaaG0WmRJp5-104" target="hoYCMe5sjBaaG0WmRJp5-105">
          <mxGeometry relative="1" as="geometry" />
        </mxCell>
        <mxCell id="hoYCMe5sjBaaG0WmRJp5-104" value="copy URI" style="whiteSpace=wrap;html=1;strokeWidth=2;" vertex="1" parent="1">
          <mxGeometry x="380" y="950" width="120" height="60" as="geometry" />
        </mxCell>
        <mxCell id="hoYCMe5sjBaaG0WmRJp5-105" value="set vocab:inDocument property" style="whiteSpace=wrap;html=1;strokeWidth=2;" vertex="1" parent="1">
          <mxGeometry x="580" y="950" width="120" height="60" as="geometry" />
        </mxCell>
        <mxCell id="hoYCMe5sjBaaG0WmRJp5-109" style="edgeStyle=orthogonalEdgeStyle;rounded=0;orthogonalLoop=1;jettySize=auto;html=1;entryX=0;entryY=0.5;entryDx=0;entryDy=0;" edge="1" parent="1" source="hoYCMe5sjBaaG0WmRJp5-108" target="hoYCMe5sjBaaG0WmRJp5-84">
          <mxGeometry relative="1" as="geometry" />
        </mxCell>
        <mxCell id="hoYCMe5sjBaaG0WmRJp5-108" value="Reuse concept" style="strokeWidth=2;html=1;shape=mxgraph.flowchart.start_1;whiteSpace=wrap;" vertex="1" parent="1">
          <mxGeometry x="350" y="1360" width="100" height="60" as="geometry" />
        </mxCell>
        <mxCell id="hoYCMe5sjBaaG0WmRJp5-115" style="edgeStyle=orthogonalEdgeStyle;rounded=0;orthogonalLoop=1;jettySize=auto;html=1;" edge="1" parent="1" source="hoYCMe5sjBaaG0WmRJp5-112" target="hoYCMe5sjBaaG0WmRJp5-86">
          <mxGeometry relative="1" as="geometry" />
        </mxCell>
        <mxCell id="hoYCMe5sjBaaG0WmRJp5-112" value="Create concept" style="strokeWidth=2;html=1;shape=mxgraph.flowchart.start_1;whiteSpace=wrap;" vertex="1" parent="1">
          <mxGeometry x="190" y="1520" width="100" height="60" as="geometry" />
        </mxCell>
        <mxCell id="hoYCMe5sjBaaG0WmRJp5-116" value="Reuse concept" style="strokeWidth=2;html=1;shape=mxgraph.flowchart.start_1;whiteSpace=wrap;" vertex="1" parent="1">
          <mxGeometry x="550" y="1200" width="100" height="60" as="geometry" />
        </mxCell>
        <mxCell id="hoYCMe5sjBaaG0WmRJp5-118" value="add document to catalog.xls" style="strokeWidth=2;html=1;shape=mxgraph.flowchart.start_1;whiteSpace=wrap;" vertex="1" parent="1">
          <mxGeometry x="190" y="160" width="100" height="60" as="geometry" />
        </mxCell>
        <mxCell id="hoYCMe5sjBaaG0WmRJp5-125" style="edgeStyle=orthogonalEdgeStyle;rounded=0;orthogonalLoop=1;jettySize=auto;html=1;entryX=0.5;entryY=0;entryDx=0;entryDy=0;" edge="1" parent="1" source="hoYCMe5sjBaaG0WmRJp5-122" target="hoYCMe5sjBaaG0WmRJp5-124">
          <mxGeometry relative="1" as="geometry" />
        </mxCell>
        <mxCell id="hoYCMe5sjBaaG0WmRJp5-122" value="search concepts" style="strokeWidth=2;html=1;shape=mxgraph.flowchart.start_1;whiteSpace=wrap;" vertex="1" parent="1">
          <mxGeometry x="-50" y="280" width="100" height="60" as="geometry" />
        </mxCell>
        <mxCell id="hoYCMe5sjBaaG0WmRJp5-124" value="push to Git" style="whiteSpace=wrap;html=1;strokeWidth=2;" vertex="1" parent="1">
          <mxGeometry x="-60" y="400" width="120" height="60" as="geometry" />
        </mxCell>
        <mxCell id="hoYCMe5sjBaaG0WmRJp5-129" style="edgeStyle=orthogonalEdgeStyle;rounded=0;orthogonalLoop=1;jettySize=auto;html=1;entryX=0.5;entryY=0;entryDx=0;entryDy=0;" edge="1" parent="1" source="hoYCMe5sjBaaG0WmRJp5-126" target="hoYCMe5sjBaaG0WmRJp5-128">
          <mxGeometry relative="1" as="geometry" />
        </mxCell>
        <mxCell id="hoYCMe5sjBaaG0WmRJp5-126" value="copy Excel file" style="whiteSpace=wrap;html=1;strokeWidth=2;" vertex="1" parent="1">
          <mxGeometry x="350" y="160" width="120" height="60" as="geometry" />
        </mxCell>
        <mxCell id="hoYCMe5sjBaaG0WmRJp5-131" value="" style="edgeStyle=orthogonalEdgeStyle;rounded=0;orthogonalLoop=1;jettySize=auto;html=1;" edge="1" parent="1" source="hoYCMe5sjBaaG0WmRJp5-128" target="hoYCMe5sjBaaG0WmRJp5-130">
          <mxGeometry relative="1" as="geometry" />
        </mxCell>
        <mxCell id="hoYCMe5sjBaaG0WmRJp5-128" value="create, reuse or delete concepts" style="whiteSpace=wrap;html=1;strokeWidth=2;" vertex="1" parent="1">
          <mxGeometry x="350" y="280" width="120" height="60" as="geometry" />
        </mxCell>
        <mxCell id="hoYCMe5sjBaaG0WmRJp5-130" value="push to Git" style="whiteSpace=wrap;html=1;strokeWidth=2;" vertex="1" parent="1">
          <mxGeometry x="350" y="400" width="120" height="60" as="geometry" />
        </mxCell>
        <mxCell id="hoYCMe5sjBaaG0WmRJp5-132" style="edgeStyle=orthogonalEdgeStyle;rounded=0;orthogonalLoop=1;jettySize=auto;html=1;entryX=0.5;entryY=0;entryDx=0;entryDy=0;entryPerimeter=0;" edge="1" parent="1" target="hoYCMe5sjBaaG0WmRJp5-133">
          <mxGeometry relative="1" as="geometry">
            <mxPoint x="590" y="70" as="sourcePoint" />
            <Array as="points">
              <mxPoint x="660" y="70" />
            </Array>
          </mxGeometry>
        </mxCell>
        <mxCell id="hoYCMe5sjBaaG0WmRJp5-134" style="edgeStyle=orthogonalEdgeStyle;rounded=0;orthogonalLoop=1;jettySize=auto;html=1;" edge="1" parent="1" source="hoYCMe5sjBaaG0WmRJp5-133">
          <mxGeometry relative="1" as="geometry">
            <mxPoint x="660" y="280" as="targetPoint" />
          </mxGeometry>
        </mxCell>
        <mxCell id="hoYCMe5sjBaaG0WmRJp5-133" value="replace document" style="strokeWidth=2;html=1;shape=mxgraph.flowchart.start_1;whiteSpace=wrap;" vertex="1" parent="1">
          <mxGeometry x="610" y="160" width="100" height="60" as="geometry" />
        </mxCell>
        <mxCell id="hoYCMe5sjBaaG0WmRJp5-135" value="deprecate document" style="strokeWidth=2;html=1;shape=mxgraph.flowchart.start_1;whiteSpace=wrap;" vertex="1" parent="1">
          <mxGeometry x="610" y="280" width="100" height="60" as="geometry" />
        </mxCell>
        <mxCell id="hoYCMe5sjBaaG0WmRJp5-139" value="deprecate document" style="strokeWidth=2;html=1;shape=mxgraph.flowchart.start_1;whiteSpace=wrap;" vertex="1" parent="1">
          <mxGeometry x="810" y="180" width="100" height="60" as="geometry" />
        </mxCell>
      </root>
    </mxGraphModel>
  </diagram>
</mxfile>
